<svg width="32" height="32" viewBox="0 0 32 32" fill="none" xmlns="http://www.w3.org/2000/svg">
<rect width="31.88" height="32" rx="3" fill="white"/>
<path d="M16.6682 25.8131C16.6682 25.8131 16.7017 25.7664 16.7685 25.6729C16.8354 25.5638 16.8689 25.4937 16.8689 25.4626V25.3692C16.802 25.229 16.7602 25.1355 16.7434 25.0888C16.7434 25.0421 16.6933 24.9642 16.5929 24.8551C16.5093 24.7461 16.3421 24.5748 16.0912 24.3411C15.8571 24.1075 15.4808 23.7414 14.9624 23.243V22.986C15.046 22.8769 15.138 22.7835 15.2383 22.7056C15.3386 22.6277 15.4307 22.5343 15.5142 22.4252C15.5979 22.3006 15.6648 22.1449 15.7149 21.9579C15.7818 21.7554 15.8153 21.4751 15.8153 21.1168V19.785C15.8153 19.7383 15.8153 19.6293 15.8153 19.4579C15.832 19.271 15.8488 19.0763 15.8654 18.8738C15.8822 18.6558 15.8905 18.4533 15.8905 18.2664C15.9073 18.0794 15.9156 17.9626 15.9156 17.9159V16.8645C15.9156 16.8334 15.924 16.7866 15.9407 16.7243C15.9742 16.662 15.9909 16.6152 15.9909 16.5841V15.2757C15.9909 14.9797 15.9993 14.7072 16.016 14.4579C16.0494 14.2087 16.0745 13.9595 16.0912 13.7103C16.1247 13.4455 16.1414 13.1651 16.1414 12.8692C16.1581 12.5577 16.1498 12.1916 16.1163 11.771V11.4206C16.1163 11.2492 16.108 11.0779 16.0912 10.9065C16.0912 10.7196 16.0912 10.5483 16.0912 10.3925V10.0187C16.0745 10.0031 15.9825 9.95638 15.8153 9.87851C15.6648 9.80063 15.4641 9.72274 15.2132 9.64486C14.9791 9.56698 14.7199 9.49689 14.4356 9.43458C14.1513 9.3567 13.8837 9.31776 13.6328 9.31776H13.2315C13.1646 9.31776 13.081 9.37227 12.9806 9.48131C12.897 9.57477 12.8134 9.69159 12.7298 9.83178C12.6462 9.97196 12.5709 10.1199 12.504 10.2757C12.4371 10.4159 12.3953 10.5405 12.3786 10.6495V10.7897C12.3786 10.9143 12.3953 11.0389 12.4287 11.1636C12.4789 11.2882 12.5291 11.4128 12.5792 11.5374C12.7298 11.9735 12.8552 12.3318 12.9555 12.6121C13.0559 12.8769 13.1311 13.1106 13.1813 13.3131C13.2482 13.5156 13.29 13.7025 13.3067 13.8738C13.3235 14.0296 13.3318 14.2243 13.3318 14.4579V15.6262C13.3318 15.8909 13.265 16.1947 13.1311 16.5374C12.9974 16.8645 12.8719 17.176 12.7548 17.472C12.688 17.6277 12.5709 17.7913 12.4036 17.9626C12.2364 18.1184 12.0524 18.2741 11.8518 18.4299C11.6511 18.5857 11.4421 18.7414 11.2246 18.8972C11.0073 19.053 10.8233 19.2009 10.6727 19.3411L10.1961 19.785C10.1794 19.8006 10.1209 19.8629 10.0205 19.972C9.93691 20.0654 9.8951 20.1199 9.8951 20.1355V20.229L9.99544 20.4159C10.1125 20.447 10.3885 20.5327 10.8233 20.6729C11.2581 20.8131 11.6846 21.0779 12.1026 21.4673C12.1194 21.514 12.203 21.5997 12.3535 21.7243C12.5207 21.8489 12.7047 21.9813 12.9054 22.1215C13.106 22.2461 13.2984 22.3629 13.4823 22.472C13.683 22.581 13.8252 22.6355 13.9088 22.6355L14.2851 22.285C14.3185 22.176 14.4105 22.0047 14.561 21.771C14.7115 21.5374 14.8453 21.4128 14.9624 21.3972V21.5607C14.8788 21.8411 14.7199 22.1682 14.4857 22.5421C14.2516 22.9159 13.9589 23.3053 13.6077 23.7103C13.2566 24.0997 12.8552 24.4891 12.4036 24.8785C11.9521 25.2679 11.4671 25.6106 10.9487 25.9065C10.9487 25.9065 10.932 25.8988 10.8985 25.8832C10.8651 25.852 10.8483 25.8287 10.8483 25.8131V25.6495C10.8985 25.5561 10.9738 25.4782 11.0741 25.4159C11.1912 25.3536 11.2497 25.2835 11.2497 25.2056C11.2497 25.0343 11.1327 24.8474 10.8985 24.6449C10.6811 24.4268 10.4303 24.2165 10.1459 24.014C9.86166 23.8115 9.57735 23.6324 9.29305 23.4766C9.00875 23.3209 8.7997 23.2119 8.66591 23.1495C8.04713 22.8536 7.57051 22.6433 7.23603 22.5187C6.90156 22.3941 6.6089 22.324 6.35804 22.3084C6.10719 22.2773 5.84797 22.2773 5.58039 22.3084C5.32953 22.3395 4.96161 22.3551 4.47663 22.3551H4.37628L4.27594 22.285V22.215L6.28278 20.3224C6.29951 20.3068 6.35804 20.2913 6.45838 20.2757C6.55873 20.2446 6.62562 20.229 6.65907 20.229H7.71266C8.08058 20.229 8.43178 20.1433 8.76625 19.972C9.10072 19.785 9.39339 19.5825 9.64425 19.3645C9.8951 19.1308 10.1042 18.905 10.2714 18.6869C10.4386 18.4533 10.539 18.2897 10.5724 18.1963V17.5654C10.5724 17.2227 10.5473 16.919 10.4971 16.6542C10.4637 16.3894 10.263 16.0156 9.8951 15.5327C9.8951 15.486 9.66933 15.1978 9.21779 14.6682C8.78298 14.1231 8.03041 13.3754 6.96009 12.4252C6.82631 12.3162 6.66743 12.176 6.48347 12.0047C6.29951 11.8334 6.10719 11.6698 5.9065 11.514C5.70582 11.3427 5.51349 11.2025 5.32953 11.0935C5.14558 10.9688 4.9867 10.9065 4.85291 10.9065H4.75257C4.78601 10.8598 4.73584 10.9299 4.60205 11.1168C4.46827 11.3037 4.33447 11.4907 4.20068 11.6776C4.08362 11.8489 4.01672 11.9502 4 11.9813V11.5374C4 11.4283 4.03345 11.3427 4.10034 11.2804C4.40137 10.6417 4.67731 10.1199 4.92817 9.71495C5.17902 9.30997 5.53858 8.88162 6.00684 8.42991L6.10719 8.33645C6.12391 8.32087 6.149 8.28193 6.18244 8.21963C6.23261 8.15732 6.26606 8.11059 6.28278 8.07944L8.38997 6.11682C8.4067 6.11682 8.45687 6.10125 8.54048 6.07009C8.6241 6.02336 8.66591 6.00779 8.66591 6.02336V6.30374L8.08894 6.84112V7.09813C8.2729 7.22274 8.49031 7.38629 8.74117 7.58879C8.99202 7.7757 9.15926 7.9081 9.24288 7.98598L11.626 10.2056H11.7263L12.203 9.76168C12.3033 9.66822 12.387 9.57477 12.4538 9.48131C12.5207 9.38785 12.6378 9.24766 12.805 9.06075C12.9723 8.87383 13.2148 8.61682 13.5325 8.28972C13.867 7.96262 14.3436 7.5109 14.9624 6.93458C14.9791 6.88785 15.0293 6.81776 15.1129 6.7243C15.1965 6.61526 15.2801 6.50623 15.3637 6.3972C15.4474 6.28816 15.531 6.1947 15.6146 6.11682C15.7149 6.03894 15.7902 6 15.8404 6C15.8404 6.12461 15.8153 6.23365 15.7651 6.3271C15.7317 6.40498 15.7149 6.48287 15.7149 6.56075V6.65421C15.7149 6.71651 15.8905 6.79439 16.2417 6.88785C16.6097 6.98131 17.0027 7.08255 17.4208 7.19159C17.8556 7.30062 18.2486 7.40966 18.5998 7.51869C18.9677 7.62772 19.1517 7.72897 19.1517 7.82243V8.1729C19.1517 8.20405 19.135 8.28193 19.1015 8.40654C19.0681 8.51558 19.0513 8.58567 19.0513 8.61682V9.06075C19.0681 9.04517 19.1015 9.0296 19.1517 9.01402C19.2018 8.99844 19.2353 8.98287 19.252 8.96729C19.4862 8.79595 19.6952 8.64019 19.8791 8.5C20.0798 8.35981 20.3474 8.15732 20.6819 7.89252L20.7571 7.82243C20.7906 7.79128 20.8826 7.72118 21.0331 7.61215C21.2003 7.48754 21.3007 7.40966 21.3341 7.37851L22.764 6.04673C22.764 6.03115 22.7724 6.02336 22.7891 6.02336C22.9897 6.02336 23.0232 6.10903 22.8894 6.28037C22.7724 6.43614 22.6971 6.56075 22.6636 6.65421C22.6636 6.84112 22.8392 6.99688 23.1904 7.1215C23.5416 7.2461 23.9179 7.36293 24.3193 7.47196C24.7374 7.58099 25.122 7.69003 25.4732 7.79907C25.8244 7.9081 26 8.03271 26 8.1729V8.26636C25.9833 8.31308 25.9415 8.39096 25.8746 8.5C25.8077 8.60903 25.7325 8.73365 25.6488 8.87383C25.582 8.99844 25.515 9.12306 25.4481 9.24766C25.3979 9.37227 25.3645 9.45794 25.3478 9.50467C25.2976 9.61371 25.2474 9.73832 25.1973 9.87851C25.1471 10.0031 25.1053 10.1822 25.0718 10.4159C25.0384 10.6495 25.005 10.9455 24.9715 11.3037C24.9548 11.662 24.9464 12.1215 24.9464 12.6822V12.9626C24.9464 13.9907 24.9297 15.0187 24.8962 16.0467C24.8628 17.0592 24.8461 17.9548 24.8461 18.7336C24.8461 19.2633 24.8461 19.8162 24.8461 20.3925C24.8461 20.9689 24.9799 21.3894 25.2474 21.6542C25.3645 21.81 25.515 21.9813 25.699 22.1682C25.8997 22.3395 26 22.4642 26 22.5421V22.7056C26 22.7367 25.9415 22.8458 25.8244 23.0327C25.7241 23.2196 25.6572 23.352 25.6237 23.4299C25.6405 23.4143 25.5986 23.5 25.4983 23.6869C25.3979 23.8738 25.2558 24.1075 25.0718 24.3878C24.9046 24.6526 24.704 24.9408 24.4698 25.2523C24.2524 25.5483 24.035 25.7975 23.8176 26C23.7507 26 23.7172 25.9689 23.7172 25.9065V25.8364C23.7172 25.743 23.734 25.6573 23.7674 25.5794C23.8009 25.486 23.8176 25.3925 23.8176 25.2991V25.2056C23.8176 25.19 23.8092 25.1433 23.7925 25.0654C23.7758 24.9876 23.7507 24.9408 23.7172 24.9252L22.9647 24.2243C22.8811 24.1464 22.764 24.053 22.6135 23.9439C22.4629 23.8349 22.3124 23.7259 22.1619 23.6168C22.0114 23.5078 21.8776 23.4143 21.7605 23.3364C21.6602 23.243 21.61 23.1729 21.61 23.1262C21.5934 23.1573 21.6184 23.0717 21.6853 22.8692C21.7522 22.6511 21.794 22.5109 21.8107 22.4486C21.8609 22.1526 21.8944 21.6308 21.9111 20.8832C21.9446 20.1355 21.9612 19.3489 21.9612 18.5234V16.8645V16.3271C21.9612 16.3115 21.9529 16.296 21.9361 16.2804C21.9195 16.2492 21.9111 16.2336 21.9111 16.2336C21.7439 16.2336 21.5348 16.296 21.2839 16.4206C21.0331 16.5296 20.7739 16.662 20.5063 16.8178C20.2387 16.9579 19.9795 17.1137 19.7286 17.285C19.4945 17.4408 19.3022 17.5654 19.1517 17.6589C19.1015 17.7056 19.0513 17.7523 19.0011 17.7991C18.951 17.8302 18.9008 17.9237 18.8506 18.0794C18.8005 18.2196 18.7587 18.4455 18.7252 18.757C18.6918 19.0685 18.675 19.5047 18.675 20.0654V21.6542C18.675 21.7633 18.7252 21.8645 18.8255 21.9579C18.9259 22.0514 19.0346 22.1605 19.1517 22.285C19.2855 22.3941 19.4025 22.5265 19.5028 22.6822C19.6032 22.838 19.6534 23.0249 19.6534 23.243C19.6534 23.3209 19.5614 23.461 19.3774 23.6636C19.2102 23.8661 18.9928 24.0997 18.7252 24.3645C18.4743 24.6293 18.1901 24.9096 17.8723 25.2056C17.5546 25.486 17.2452 25.7508 16.9441 26H16.7685C16.7685 26 16.7518 25.9922 16.7184 25.9766C16.6849 25.9455 16.6682 25.9221 16.6682 25.9065V25.8598V25.8131ZM5.32953 10.0187C5.41315 10.0966 5.56366 10.2368 5.78107 10.4393C5.99848 10.6417 6.22425 10.8598 6.45838 11.0935C6.70924 11.3271 6.94337 11.5452 7.16078 11.7477C7.37819 11.9502 7.5287 12.0904 7.61232 12.1682C7.77956 12.2617 7.98024 12.4642 8.21437 12.7757C8.46523 13.0717 8.68264 13.3131 8.86659 13.5L8.94185 13.5701C9.19271 13.8661 9.39339 14.1075 9.5439 14.2944C9.69442 14.4813 9.81984 14.6526 9.92019 14.8084C10.0373 14.9642 10.1376 15.1277 10.2212 15.2991C10.3215 15.4704 10.4386 15.6963 10.5724 15.9766C10.6226 16.0857 10.6727 16.2726 10.7229 16.5374C10.7898 16.7866 10.84 17.0203 10.8734 17.2383C10.9236 17.4408 10.9654 17.5654 10.9989 17.6121C11.0323 17.6589 11.049 17.5265 11.049 17.215V16.4206C11.049 16.3738 11.0239 16.2414 10.9738 16.0234C10.9403 15.8053 10.8985 15.6729 10.8483 15.6262C10.748 15.2056 10.6226 14.9019 10.4721 14.715C10.3383 14.5124 10.1794 14.2243 9.99544 13.8505C9.87838 13.648 9.62752 13.3131 9.24288 12.8458C8.85823 12.3785 8.43178 11.9112 7.96352 11.4439C7.51198 10.9766 7.06044 10.5639 6.6089 10.2056C6.17408 9.84735 5.84797 9.66822 5.63056 9.66822H5.42988C5.36298 9.73053 5.32953 9.76168 5.32953 9.76168V10.0187ZM22.0365 14.9486C21.9361 14.9486 21.702 15.0265 21.3341 15.1822C20.9829 15.338 20.615 15.5327 20.2303 15.7664C19.8457 15.9844 19.5028 16.2259 19.2018 16.4907C18.9008 16.7399 18.7503 16.9735 18.7503 17.1916C18.7503 17.2539 18.7587 17.2928 18.7754 17.3084C18.8423 17.3084 19.0179 17.2383 19.3022 17.0981C19.6032 16.9423 19.9126 16.7788 20.2303 16.6075C20.5648 16.4206 20.8659 16.257 21.1334 16.1168C21.401 15.961 21.5348 15.8832 21.5348 15.8832C21.7188 15.8053 21.8442 15.704 21.9111 15.5794C21.9947 15.4393 22.0365 15.229 22.0365 14.9486ZM20.1049 9.03738C19.7704 9.03738 19.4778 9.20872 19.2269 9.5514C18.9761 9.8785 18.8506 10.4237 18.8506 11.1869V16.1636C18.8841 16.1636 19.0513 16.0701 19.3523 15.8832C19.6701 15.6807 20.013 15.4626 20.3808 15.229C20.7488 14.9953 21.0832 14.7773 21.3843 14.5748C21.702 14.3567 21.8776 14.2321 21.9111 14.2009L22.0114 14.1075C22.0114 13.6402 22.0365 13.1807 22.0867 12.729C22.1536 12.2617 22.2873 11.8334 22.488 11.4439C22.5884 11.257 22.7055 11.0701 22.8392 10.8832C22.9897 10.6963 23.065 10.5483 23.065 10.4393C23.065 10.3769 22.9145 10.2757 22.6135 10.1355C22.3124 9.97975 21.978 9.82399 21.61 9.66822C21.2422 9.49688 20.9076 9.34891 20.6066 9.2243C20.3056 9.09969 20.1384 9.03738 20.1049 9.03738Z" fill="#171717"/>
</svg>
